PathFileType	4	(X/Y/Z)	C:\Users\Basilio\Documents\Thesis Gigler\squatting_fais\c3dfiles\044\SLS_back_pre1\markers_experimental.trc
DataRate	CameraRate	NumFrames	NumMarkers	Units	OrigDataRate	OrigDataStartFrame	OrigNumFrames
200.000000	200.000000	4	68	mm	200.000000	1296	1728
Frame#	Time	FHD			LBHD			RBHD			C7			T10			CLAV			LRAD			LRFIN			RSHO			RUPA1			RMUPA			RDUPA			RLEP			RMEP			RUL			LASI			RASI			USACR			LSACR			RSACR			LTHI1			LTHI2			LTHI3			LTHI4			LLFC			LMFC			LTIB1			LTIB2			LTIB3			LTIB4			LLMAL			LMMAL			LHEE			LMT1			LMT2			LMT5			RTHI			RTHI2			RTHI3			RTHI4			RLFC			RMFC			RTIB1			RTIB2			RTIB3			RTIB4			RLMAL			RMMAL			RHEE			RMT1			RMT2			RMT5			RUFIN			LSHO			LUUPA			LMUPA			LDUPA			LLEP			LMEP			LUL			*60			*61			*62			*63			*64			*65			*66			*67			
		X1	Y1	Z1	X2	Y2	Z2	X3	Y3	Z3	X4	Y4	Z4	X5	Y5	Z5	X6	Y6	Z6	X7	Y7	Z7	X8	Y8	Z8	X9	Y9	Z9	X10	Y10	Z10	X11	Y11	Z11	X12	Y12	Z12	X13	Y13	Z13	X14	Y14	Z14	X15	Y15	Z15	X16	Y16	Z16	X17	Y17	Z17	X18	Y18	Z18	X19	Y19	Z19	X20	Y20	Z20	X21	Y21	Z21	X22	Y22	Z22	X23	Y23	Z23	X24	Y24	Z24	X25	Y25	Z25	X26	Y26	Z26	X27	Y27	Z27	X28	Y28	Z28	X29	Y29	Z29	X30	Y30	Z30	X31	Y31	Z31	X32	Y32	Z32	X33	Y33	Z33	X34	Y34	Z34	X35	Y35	Z35	X36	Y36	Z36	X37	Y37	Z37	X38	Y38	Z38	X39	Y39	Z39	X40	Y40	Z40	X41	Y41	Z41	X42	Y42	Z42	X43	Y43	Z43	X44	Y44	Z44	X45	Y45	Z45	X46	Y46	Z46	X47	Y47	Z47	X48	Y48	Z48	X49	Y49	Z49	X50	Y50	Z50	X51	Y51	Z51	X52	Y52	Z52	X53	Y53	Z53	X54	Y54	Z54	X55	Y55	Z55	X56	Y56	Z56	X57	Y57	Z57	X58	Y58	Z58	X59	Y59	Z59	X60	Y60	Z60	X61	Y61	Z61	X62	Y62	Z62	X63	Y63	Z63	X64	Y64	Z64	X65	Y65	Z65	X66	Y66	Z66	X67	Y67	Z67	X68	Y68	Z68	

1297	6.48	-68.88732147216798	1688.309814453125	-1065.3466796875	-204.4730224609376	1648.91064453125	-1136.61279296875	-239.1158752441407	1629.924926757813	-974.9592895507815	-265.6309814453126	1484.269409179688	-1058.306762695313	-363.5852050781251	1209.934814453125	-1001.914245605469	-137.3497772216797	1415.638061523438	-1059.488403320313	nan	nan	nan	364.9981994628907	1487.292724609375	-1077.652099609375	-174.1199188232422	1485.95361328125	-907.0643310546877	-32.93430328369141	1473.497802734375	-796.7722167968752	-0.5166115164756776	1482.442749023438	-834.3589477539065	36.30962753295899	1473.549560546875	-788.015319824219	98.46245574951175	1476.429931640625	-794.7342529296877	97.65551757812503	1393.265747070313	-796.5795898437502	348.8176574707032	1479.654663085938	-930.2225341796877	-283.1106567382813	973.4403076171877	-1093.856323242188	-261.7099609375001	957.986755371094	-880.9329223632815	-413.8640747070314	1069.68115234375	-966.4653930664065	-435.3773803710939	1041.543823242188	-990.7325439453127	-423.1565856933595	1041.851684570313	-935.262878417969	-329.5150146484376	762.1233520507814	-1162.994873046875	-268.1861877441407	703.8430175781251	-1165.712890625	-224.6785583496094	722.0972290039064	-1159.851684570313	-270.7802429199219	645.3582153320314	-1146.698120117188	-199.8215789794922	508.6111145019532	-1129.449951171875	-191.5920104980469	513.0553588867189	-1009.653991699219	-202.9140014648438	340.2986145019532	-1034.922119140625	-238.5473632812501	292.6188354492188	-1101.00439453125	-208.9794464111329	287.9364624023438	-1063.0341796875	-243.9132232666016	221.3321838378907	-1025.24267578125	-321.0062255859376	117.0282211303711	-1061.0439453125	-301.6018981933594	130.5713958740235	-976.775817871094	-387.7036743164064	97.08047485351565	-1010.043395996094	-181.4955596923828	58.06684875488283	-986.6472778320315	-179.4935760498047	58.57231521606447	-1032.54638671875	-216.2852172851563	44.26592636108399	-1078.749633789063	-317.5509033203126	701.1594238281251	-789.2929687500002	-261.9448547363282	660.7067260742189	-789.7276000976565	-232.3602905273438	670.2001953125001	-801.2197265625002	-267.2341003417969	576.4189453125001	-804.150085449219	-273.1834411621094	496.2402648925782	-822.6452636718752	-284.0578918457032	491.123260498047	-939.3223266601565	-360.6889038085938	401.6639099121095	-853.1967773437502	-453.9261779785157	445.3221130371095	-813.2669677734377	-444.8369445800782	402.8618469238282	-828.852233886719	-488.2132568359376	377.1068420410157	-857.4995117187502	-654.5235595703126	388.1909790039064	-851.1732177734377	-634.4260253906251	372.8645935058594	-935.136657714844	-695.5711669921876	436.3921203613282	-905.3891601562502	-668.3571777343751	227.8803100585938	-926.5084228515627	-673.4813232421876	218.4308624267579	-890.8038330078127	-710.3925170898439	251.0234985351563	-844.9253540039065	347.2748413085938	1456.167236328125	-1046.49853515625	-178.6901092529297	1482.263061523438	-1199.054321289063	-27.54010581970216	1451.317504882813	-1303.928588867188	3.010232686996461	1464.481201171875	-1265.783569335938	42.12147521972657	1448.437622070313	-1310.03076171875	101.0718078613282	1448.87353515625	-1302.964233398438	92.9183807373047	1369.58349609375	-1286.593383789063	357.3234863281251	1465.6396484375	-1178.858520507813	nan	nan	nan	nan	nan	nan	nan	nan	nan	nan	nan	nan	nan	nan	nan	nan	nan	nan	nan	nan	nan	nan	nan	nan	
1298	6.485	-69.39279937744142	1690.250122070313	-1064.972534179688	-204.3112030029297	1651.164184570313	-1136.402221679688	-239.8282165527344	1631.603393554688	-974.6296386718752	-266.0548400878907	1485.74267578125	-1058.099243164063	-363.5461730957032	1211.33984375	-1001.974609375	-137.7180786132813	1417.504272460938	-1059.303466796875	nan	nan	nan	364.6654357910157	1488.3154296875	-1077.6142578125	-174.2127532958985	1487.37939453125	-906.7874145507815	-33.53606796264649	1475.157104492188	-796.787536621094	-1.027204275131226	1484.038940429688	-834.3610839843752	35.75373458862305	1475.053344726563	-787.8167724609377	98.13189697265628	1477.412231445313	-794.4155273437502	97.18545532226565	1394.249145507813	-796.2840576171877	348.3099365234376	1480.048950195313	-929.8323974609377	-281.9256591796876	974.535583496094	-1094.131469726563	-261.1890258789063	959.723571777344	-880.9563598632815	-413.4824523925782	1070.739501953125	-966.5108032226565	-435.0149841308595	1042.851196289063	-990.8294677734377	-422.5874633789064	1043.214599609375	-935.3978271484377	-329.6253662109376	762.8551025390626	-1163.2109375	-268.7618408203126	704.2681884765626	-1165.841796875	-225.1216278076172	722.6265258789064	-1160.01416015625	-271.4644470214844	645.9392700195314	-1146.728393554688	-200.7665557861329	508.9190368652345	-1129.60791015625	-192.2269897460938	513.3977661132814	-1009.632934570313	-203.9375457763672	340.0835571289063	-1035.238891601563	-238.7282714843751	293.4229431152344	-1101.307373046875	-209.8303985595704	288.1911926269532	-1062.92431640625	-244.3260192871094	221.2912139892579	-1025.383422851563	-321.1875000000001	117.0179519653321	-1061.215087890625	-301.5287170410157	130.714584350586	-977.1192626953127	-387.7130737304689	97.02081298828128	-1010.141540527344	-181.4474182128907	58.19453048706056	-986.7305297851565	-179.5221252441407	58.48842239379884	-1032.656494140625	-216.4992370605469	44.10295486450196	-1078.778930664063	-316.8727111816407	702.5482788085939	-789.6198730468752	-261.4431457519532	662.2548217773439	-790.032409667969	-231.9034576416016	671.5334472656251	-801.0948486328127	-266.7768554687501	578.1163940429689	-804.4274902343752	-272.5483093261719	497.7031555175782	-822.8697509765627	-283.6803588867188	492.5726013183595	-939.5267333984377	-359.7546386718751	402.7229614257814	-853.5164794921877	-453.2234802246095	446.4795227050782	-813.450622558594	-444.0835266113282	403.7375793457032	-829.1198730468752	-487.3079833984376	378.0761108398438	-857.8005371093752	-653.8624267578126	388.8771972656251	-851.6588134765627	-633.5904541015626	373.8063659667969	-935.4434204101565	-694.8536376953126	437.2418212890626	-905.7244873046877	-666.0444335937501	231.177963256836	-927.9306640625002	-672.5515136718751	219.0058746337891	-891.840270996094	-709.3510131835939	251.9457397460938	-845.2685546875002	346.8150329589844	1456.916748046875	-1046.31005859375	-178.9706726074219	1483.9169921875	-1198.951049804688	-27.8999423980713	1452.59716796875	-1303.84619140625	2.273718357086182	1465.697509765625	-1265.757934570313	41.36319732666016	1449.1826171875	-1309.56591796875	100.821891784668	1449.017822265625	-1301.96875	92.50478363037111	1370.621337890625	-1286.521606445313	356.8096008300782	1466.57861328125	-1178.826904296875	nan	nan	nan	nan	nan	nan	nan	nan	nan	nan	nan	nan	nan	nan	nan	nan	nan	nan	nan	nan	nan	nan	nan	nan	
1299	6.49	-69.72200012207033	1692.566040039063	-1064.823364257813	-205.4644317626954	1652.771362304688	-1136.133911132813	-240.5943298339844	1632.9658203125	-973.9251098632815	-266.4909667968751	1487.467651367188	-1057.955200195313	-363.6378173828126	1212.697021484375	-1002.059936523438	-138.0911865234375	1419.528076171875	-1059.025268554688	nan	nan	nan	364.2103881835938	1489.129150390625	-1077.373413085938	-174.8929290771485	1488.944458007813	-906.3215332031252	-33.7378158569336	1476.052490234375	-796.1237792968752	-1.488027095794678	1485.156127929688	-833.6897583007815	35.31735610961915	1476.176513671875	-787.4649658203127	97.6843185424805	1478.689819335938	-794.0798950195315	96.78374481201175	1395.544311523438	-796.0010375976565	347.7011718750001	1481.175903320313	-929.5942993164065	-281.8582458496094	976.3970947265627	-1093.979736328125	-260.8470764160157	961.0775146484377	-880.9199218750002	-413.227752685547	1072.206298828125	-966.6417236328127	-434.7350158691407	1044.27978515625	-991.0197753906252	-422.2581176757814	1044.59326171875	-935.5029296875002	-329.8936462402344	763.9951171875001	-1163.175659179688	-269.3586120605469	705.0432739257814	-1165.927490234375	-225.2184600830079	723.0534667968751	-1160.203491210938	-272.0916442871094	646.5382080078126	-1146.737426757813	-202.1734466552735	509.5792541503907	-1129.748413085938	-193.2903289794922	513.5508422851564	-1009.771057128906	-204.7821502685547	340.5485839843751	-1035.755859375	-239.6529693603516	293.7440185546876	-1101.638793945313	-210.4547119140626	289.0940246582032	-1063.394287109375	-244.6640777587891	221.4022064208985	-1025.559204101563	-321.6931457519532	116.9123611450196	-1061.309936523438	-301.5159606933594	130.8562164306641	-977.487487792969	-387.7444458007814	97.01322174072268	-1010.217346191406	-181.5653533935547	58.38846588134767	-986.7896118164065	-179.5377960205078	58.43659973144533	-1032.7587890625	-216.5335693359376	43.96840286254884	-1078.864135742188	-316.1135559082032	703.9374389648439	-789.7783203125002	-261.1047973632813	663.9956665039064	-790.4816894531252	-231.1432342529297	673.1469116210939	-801.4287109375002	-266.3025817871094	579.8237304687501	-804.9824829101565	-272.0728759765626	499.2475585937501	-823.633728027344	-283.4730529785157	494.4833984375001	-940.226013183594	-359.0616149902344	404.1852416992189	-853.6770629882815	-452.7344665527345	447.6257324218751	-813.7167968750002	-443.3537597656251	405.0809631347657	-829.3394165039065	-486.534637451172	378.8457641601563	-858.0041503906252	-653.1412963867189	389.6972656250001	-851.866149902344	-633.0935668945314	373.8652038574219	-935.5967407226565	-694.2308349609376	438.0115661621095	-906.044860839844	-666.1121826171876	228.9373931884766	-927.000915527344	-671.6091918945314	219.9335021972657	-891.7858886718752	-708.2998657226564	252.5664062500001	-845.6692504882815	346.3045349121094	1457.645263671875	-1046.085205078125	-179.405502319336	1485.799926757813	-1198.860961914063	-28.15789031982423	1453.984741210938	-1303.737670898438	2.404696464538575	1466.848754882813	-1265.578125	41.4754753112793	1450.733764648438	-1310.0859375	100.6280746459961	1449.95849609375	-1302.078125	92.07700347900392	1371.894897460938	-1286.349975585938	356.6145324707032	1466.970703125	-1178.58740234375	-271.9154052734376	498.9175720214845	-823.240417480469	-282.9243774414063	494.0425720214845	-939.8437500000002	nan	nan	nan	nan	nan	nan	nan	nan	nan	nan	nan	nan	nan	nan	nan	nan	nan	nan	
1300	6.495	-70.41567993164064	1694.581909179688	-1064.447265625	-205.4330291748047	1655.056640625	-1135.779174804688	-241.1169891357422	1634.737915039063	-973.7261962890627	-267.2146911621094	1489.272705078125	-1057.737915039063	-363.5566711425782	1213.97314453125	-1002.070190429688	-138.829345703125	1421.628295898438	-1058.893432617188	nan	nan	nan	364.1286010742188	1489.818359375	-1077.399780273438	-175.1454467773438	1490.580200195313	-906.0440063476565	-34.45995712280274	1477.721069335938	-796.0885009765627	-1.905635595321656	1486.4482421875	-833.4614257812502	34.88764572143555	1477.147338867188	-787.0548095703127	97.32191467285159	1479.9384765625	-793.8267211914065	96.27992248535159	1396.980224609375	-795.6067504882815	347.1539611816407	1482.24755859375	-929.601013183594	-280.7846679687501	977.6033325195315	-1094.11474609375	-260.5050659179688	962.966247558594	-880.847351074219	-412.9534912109376	1073.411743164063	-966.7071533203127	-434.1452026367189	1045.248779296875	-991.2832641601565	-421.9255981445314	1045.912841796875	-935.5727539062502	-330.1258850097657	765.0676269531251	-1163.01953125	-269.8572998046876	705.6455078125001	-1166.046997070313	-225.450668334961	723.4888305664064	-1160.33447265625	-272.8457031250001	647.2719116210939	-1146.725219726563	-203.5946350097657	510.187957763672	-1129.951904296875	-194.5000000000001	514.1527099609376	-1010.029052734375	-205.227035522461	340.6560363769532	-1036.053955078125	-240.6785888671876	293.4428405761719	-1102.06884765625	-211.4993133544922	289.7819213867188	-1064.017211914063	-245.1049499511719	221.7004547119141	-1025.814331054688	-322.6573181152344	116.5064163208008	-1061.352416992188	-301.5204162597657	130.8674774169922	-977.7849121093752	-387.799285888672	96.94521331787112	-1010.203552246094	-181.2100219726563	58.37946701049806	-986.2780761718752	-179.5334014892578	58.39001464843751	-1032.84814453125	-216.5786285400391	43.8015251159668	-1078.97314453125	-315.6099853515626	705.5725708007814	-789.818786621094	-260.2164916992188	665.2378540039064	-790.4067993164065	-230.5987701416016	674.7184448242189	-801.276306152344	-265.4145507812501	581.1458129882814	-804.854187011719	-271.0940246582032	500.5212402343751	-823.4053344726565	-282.4248962402344	495.6909179687501	-939.9475097656252	-358.2605895996094	405.5691528320314	-854.2227172851565	-451.9939270019532	448.9620666503907	-813.9861450195315	-442.6797180175782	406.2079467773439	-829.5180664062502	-485.8790893554689	380.0286254882813	-857.8120727539065	-652.2249755859376	390.4623107910157	-852.009704589844	-636.2135620117189	373.6117553710938	-934.9597778320315	-693.5505371093751	438.6692810058595	-906.1795654296877	-665.0878295898439	230.8834381103516	-927.4981689453127	-670.2752685546876	220.6129913330079	-891.812927246094	-707.5433349609376	253.3115386962891	-845.8839111328127	345.7855529785157	1458.333862304688	-1045.837768554688	-179.9349822998047	1487.39013671875	-1198.865478515625	-28.53193664550782	1455.37451171875	-1303.607666015625	1.998961448669434	1468.050415039063	-1265.451049804688	40.39129638671876	1451.187744140625	-1309.103393554688	100.0429916381836	1450.972900390625	-1301.615234375	91.14148712158205	1372.751220703125	-1285.664916992188	356.4029235839844	1467.371948242188	-1178.380004882813	nan	nan	nan	nan	nan	nan	nan	nan	nan	nan	nan	nan	nan	nan	nan	nan	nan	nan	nan	nan	nan	nan	nan	nan	
